<svg width="292" height="281" viewBox="0 0 292 281" fill="none" xmlns="http://www.w3.org/2000/svg">
<mask id="mask0_22_58" style="mask-type:alpha" maskUnits="userSpaceOnUse" x="0" y="0" width="281" height="281">
<path d="M140.5 0C218.096 0 281 62.904 281 140.5C281 218.096 218.096 281 140.5 281C62.904 281 0 218.096 0 140.5C0 62.904 62.904 0 140.5 0ZM140.5 30.3779C79.6815 30.3779 30.3779 79.6815 30.3779 140.5C30.3779 201.318 79.6815 250.622 140.5 250.622C201.318 250.622 250.622 201.318 250.622 140.5C250.622 79.6815 201.318 30.3779 140.5 30.3779Z" fill="#F3B642"/>
</mask>
<g mask="url(#mask0_22_58)">
<g filter="url(#filter0_i_22_58)">
<path fill-rule="evenodd" clip-rule="evenodd" d="M140.5 281C218.096 281 281 218.096 281 140.5C281 62.904 218.096 0 140.5 0C62.904 0 0 62.904 0 140.5C0 218.096 62.904 281 140.5 281ZM140.5 250.622C201.318 250.622 250.622 201.318 250.622 140.5C250.622 79.6815 201.318 30.3784 140.5 30.3784C79.6815 30.3784 30.3784 79.6815 30.3784 140.5C30.3784 201.318 79.6815 250.622 140.5 250.622Z" fill="url(#paint0_linear_22_58)"/>
</g>
<g filter="url(#filter1_f_22_58)">
<ellipse cx="63.7092" cy="70.7553" rx="42.7207" ry="82.5" transform="rotate(24.1248 63.7092 70.7553)" fill="#F99955"/>
</g>
<g filter="url(#filter2_f_22_58)">
<ellipse cx="63.9163" cy="229.378" rx="72.7709" ry="135.835" transform="rotate(-73.487 63.9163 229.378)" fill="#F28DB3"/>
</g>
<g filter="url(#filter3_f_22_58)">
<ellipse cx="238.505" cy="209.474" rx="57.7389" ry="100.633" transform="rotate(-143.014 238.505 209.474)" fill="#C9BBEF"/>
</g>
<g filter="url(#filter4_f_22_58)">
<ellipse cx="221.673" cy="52.9938" rx="45.8472" ry="128.16" transform="rotate(147.458 221.673 52.9938)" fill="#6EB9AD"/>
</g>
<g opacity="0.2">
<line x1="117" y1="-8" x2="117" y2="44" stroke="white" stroke-width="2"/>
<line x1="194.491" y1="-0.109497" x2="168.624" y2="44.6931" stroke="white" stroke-width="2"/>
<line x1="257.633" y1="45.4572" x2="212.831" y2="71.324" stroke="white" stroke-width="2"/>
<line x1="290" y1="116" x2="238" y2="116" stroke="white" stroke-width="2"/>
<line x1="281.643" y1="193.957" x2="236.841" y2="168.09" stroke="white" stroke-width="2"/>
<line x1="236.077" y1="257.1" x2="210.21" y2="212.297" stroke="white" stroke-width="2"/>
<line x1="166" y1="289" x2="166" y2="237" stroke="white" stroke-width="2"/>
<line x1="87.5775" y1="281.11" x2="113.444" y2="236.307" stroke="white" stroke-width="2"/>
<line x1="24.4347" y1="235.543" x2="69.2373" y2="209.677" stroke="white" stroke-width="2"/>
<line x1="-7" y1="165" x2="44" y2="165" stroke="white" stroke-width="2"/>
<line x1="0.425049" y1="87.0441" x2="45.2277" y2="112.911" stroke="white" stroke-width="2"/>
<line x1="45.991" y1="23.9015" x2="71.8578" y2="68.7042" stroke="white" stroke-width="2"/>
</g>
</g>
<path d="M166.808 196H115.192C99.07 196 86 182.938 86 166.76V115.174C86 99.0621 99.07 86 115.192 86H166.808C182.93 86 196 99.0621 196 115.174V166.76C196 182.938 182.93 196 166.808 196Z" fill="#F0CFC4"/>
<path d="M108.225 137.983C108.225 137.895 108.203 137.806 108.159 137.718C107.098 131.817 118.443 130.292 122.025 131.419C123.949 132.016 125.807 133.01 127.267 134.27C127.864 134.801 131.579 139.376 128.859 139.442C128.527 139.442 128.129 139.243 127.797 139.044C125.409 137.32 124.082 134.734 121.03 134.005C117.713 133.209 113.998 134.336 111.675 136.856C110.946 137.652 109.022 139.906 108.225 137.983Z" fill="#323232"/>
<path d="M173.973 137.983C174.018 137.895 174.04 137.806 174.04 137.718C175.101 131.817 163.823 130.292 160.174 131.419C158.316 132.016 156.392 133.01 154.932 134.27C154.335 134.801 150.686 139.376 153.34 139.442C153.738 139.442 154.07 139.243 154.402 139.044C156.79 137.32 158.117 134.734 161.169 134.005C164.552 133.209 168.201 134.336 170.523 136.856C171.32 137.652 173.177 139.906 173.973 137.983Z" fill="#323232"/>
<path d="M95.0892 150.581C95.0892 146.802 98.1411 143.752 101.923 143.752C105.704 143.752 108.756 146.802 108.756 150.581C108.756 154.36 105.704 157.411 101.923 157.411C98.1411 157.411 95.0892 154.36 95.0892 150.581Z" fill="#F28DB3"/>
<path d="M173.244 150.581C173.244 146.802 176.295 143.752 180.077 143.752C183.859 143.752 186.911 146.802 186.911 150.581C186.911 154.361 183.859 157.411 180.077 157.411C176.295 157.411 173.244 154.361 173.244 150.581Z" fill="#F28DB3"/>
<path d="M136.887 160.659C136.024 160.924 135.626 161.919 136.024 162.781L137.285 165.433C137.749 166.362 138.213 167.356 139.01 168.085C139.739 168.748 140.934 169.146 141.929 168.682C142.725 168.351 143.189 167.422 143.322 166.56C143.366 166.295 143.388 166.03 143.388 165.765C143.322 165.102 144.052 164.638 144.715 164.969C145.312 165.301 146.042 165.566 146.772 165.5C147.369 165.433 147.966 165.168 148.364 164.704C149.293 163.51 148.497 162.118 147.568 161.123C146.573 160.129 145.445 159.267 144.118 158.736C143.654 158.471 143.123 158.471 142.659 158.67L136.887 160.659Z" fill="#F28DB3"/>
<g filter="url(#filter5_ddddi_22_58)">
<circle cx="250.635" cy="91.9595" r="28.751" fill="#E2F0EE"/>
<circle cx="250.635" cy="91.9595" r="27.251" stroke="#FDFDFD" stroke-width="3"/>
</g>
<defs>
<filter id="filter0_i_22_58" x="0" y="0" width="281" height="283" filterUnits="userSpaceOnUse" color-interpolation-filters="sRGB">
<feFlood flood-opacity="0" result="BackgroundImageFix"/>
<feBlend mode="normal" in="SourceGraphic" in2="BackgroundImageFix" result="shape"/>
<feColorMatrix in="SourceAlpha" type="matrix" values="0 0 0 0 0 0 0 0 0 0 0 0 0 0 0 0 0 0 127 0" result="hardAlpha"/>
<feOffset dy="2"/>
<feGaussianBlur stdDeviation="2"/>
<feComposite in2="hardAlpha" operator="arithmetic" k2="-1" k3="1"/>
<feColorMatrix type="matrix" values="0 0 0 0 0 0 0 0 0 0 0 0 0 0 0 0 0 0 0.25 0"/>
<feBlend mode="normal" in2="shape" result="effect1_innerShadow_22_58"/>
</filter>
<filter id="filter1_f_22_58" x="-33.8397" y="-52.5543" width="195.098" height="246.619" filterUnits="userSpaceOnUse" color-interpolation-filters="sRGB">
<feFlood flood-opacity="0" result="BackgroundImageFix"/>
<feBlend mode="normal" in="SourceGraphic" in2="BackgroundImageFix" result="shape"/>
<feGaussianBlur stdDeviation="23" result="effect1_foregroundBlur_22_58"/>
</filter>
<filter id="filter2_f_22_58" x="-113.968" y="103.624" width="355.768" height="251.509" filterUnits="userSpaceOnUse" color-interpolation-filters="sRGB">
<feFlood flood-opacity="0" result="BackgroundImageFix"/>
<feBlend mode="normal" in="SourceGraphic" in2="BackgroundImageFix" result="shape"/>
<feGaussianBlur stdDeviation="23" result="effect1_foregroundBlur_22_58"/>
</filter>
<filter id="filter3_f_22_58" x="116.392" y="75.8832" width="244.225" height="267.182" filterUnits="userSpaceOnUse" color-interpolation-filters="sRGB">
<feFlood flood-opacity="0" result="BackgroundImageFix"/>
<feBlend mode="normal" in="SourceGraphic" in2="BackgroundImageFix" result="shape"/>
<feGaussianBlur stdDeviation="23" result="effect1_foregroundBlur_22_58"/>
</filter>
<filter id="filter4_f_22_58" x="114.625" y="-85.848" width="214.096" height="277.684" filterUnits="userSpaceOnUse" color-interpolation-filters="sRGB">
<feFlood flood-opacity="0" result="BackgroundImageFix"/>
<feBlend mode="normal" in="SourceGraphic" in2="BackgroundImageFix" result="shape"/>
<feGaussianBlur stdDeviation="14" result="effect1_foregroundBlur_22_58"/>
</filter>
<filter id="filter5_ddddi_22_58" x="209.884" y="61.2085" width="81.502" height="101.502" filterUnits="userSpaceOnUse" color-interpolation-filters="sRGB">
<feFlood flood-opacity="0" result="BackgroundImageFix"/>
<feColorMatrix in="SourceAlpha" type="matrix" values="0 0 0 0 0 0 0 0 0 0 0 0 0 0 0 0 0 0 127 0" result="hardAlpha"/>
<feOffset dy="2"/>
<feGaussianBlur stdDeviation="2"/>
<feColorMatrix type="matrix" values="0 0 0 0 0 0 0 0 0 0 0 0 0 0 0 0 0 0 0.1 0"/>
<feBlend mode="normal" in2="BackgroundImageFix" result="effect1_dropShadow_22_58"/>
<feColorMatrix in="SourceAlpha" type="matrix" values="0 0 0 0 0 0 0 0 0 0 0 0 0 0 0 0 0 0 127 0" result="hardAlpha"/>
<feOffset dy="7"/>
<feGaussianBlur stdDeviation="3.5"/>
<feColorMatrix type="matrix" values="0 0 0 0 0 0 0 0 0 0 0 0 0 0 0 0 0 0 0.09 0"/>
<feBlend mode="normal" in2="effect1_dropShadow_22_58" result="effect2_dropShadow_22_58"/>
<feColorMatrix in="SourceAlpha" type="matrix" values="0 0 0 0 0 0 0 0 0 0 0 0 0 0 0 0 0 0 127 0" result="hardAlpha"/>
<feOffset dy="17"/>
<feGaussianBlur stdDeviation="5"/>
<feColorMatrix type="matrix" values="0 0 0 0 0 0 0 0 0 0 0 0 0 0 0 0 0 0 0.05 0"/>
<feBlend mode="normal" in2="effect2_dropShadow_22_58" result="effect3_dropShadow_22_58"/>
<feColorMatrix in="SourceAlpha" type="matrix" values="0 0 0 0 0 0 0 0 0 0 0 0 0 0 0 0 0 0 127 0" result="hardAlpha"/>
<feOffset dy="30"/>
<feGaussianBlur stdDeviation="6"/>
<feColorMatrix type="matrix" values="0 0 0 0 0 0 0 0 0 0 0 0 0 0 0 0 0 0 0.01 0"/>
<feBlend mode="normal" in2="effect3_dropShadow_22_58" result="effect4_dropShadow_22_58"/>
<feBlend mode="normal" in="SourceGraphic" in2="effect4_dropShadow_22_58" result="shape"/>
<feColorMatrix in="SourceAlpha" type="matrix" values="0 0 0 0 0 0 0 0 0 0 0 0 0 0 0 0 0 0 127 0" result="hardAlpha"/>
<feOffset dx="4" dy="8"/>
<feGaussianBlur stdDeviation="6.4"/>
<feComposite in2="hardAlpha" operator="arithmetic" k2="-1" k3="1"/>
<feColorMatrix type="matrix" values="0 0 0 0 0.962812 0 0 0 0 0.9875 0 0 0 0 0.983973 0 0 0 1 0"/>
<feBlend mode="normal" in2="shape" result="effect5_innerShadow_22_58"/>
</filter>
<linearGradient id="paint0_linear_22_58" x1="140.5" y1="0" x2="140.5" y2="281" gradientUnits="userSpaceOnUse">
<stop stop-color="#FFB17A"/>
<stop offset="1" stop-color="#F8954F"/>
</linearGradient>
</defs>
</svg>
